<svg width="30" height="30" viewBox="0 0 30 30" fill="none" xmlns="http://www.w3.org/2000/svg">
<path d="M23.0769 4.77273L23.0769 25.2271C23.0763 25.8296 22.833 26.4074 22.4003 26.8334C21.9677 27.2595 21.3811 27.4992 20.7692 27.4998L16.1538 27.4998C15.542 27.4992 14.9554 27.2595 14.5227 26.8334C14.0901 26.4074 13.8468 25.8296 13.8462 25.2271L13.8462 4.77273C13.8468 4.17015 14.0901 3.59243 14.5227 3.16635C14.9554 2.74026 15.542 2.50063 16.1538 2.50002L20.7692 2.50002C21.3811 2.50063 21.9677 2.74026 22.4003 3.16635C22.833 3.59243 23.0763 4.17015 23.0769 4.77273ZM16.1538 25.2271L20.7692 25.2271L20.7692 4.77273L16.1538 4.77273L16.1538 25.2271ZM16.1538 4.77273L16.1538 25.2271C16.1532 25.8296 15.9099 26.4073 15.4773 26.8334C15.0446 27.2595 14.458 27.4991 13.8462 27.4997L9.23077 27.4997C8.61892 27.4991 8.0323 27.2595 7.59966 26.8334C7.16702 26.4073 6.92369 25.8296 6.92308 25.227L6.92308 4.77271C6.92369 4.17013 7.16701 3.59241 7.59966 3.16633C8.0323 2.74024 8.61892 2.50061 9.23077 2.5L13.8462 2.5C14.458 2.5006 15.0446 2.74024 15.4773 3.16633C15.9099 3.59241 16.1532 4.17015 16.1538 4.77273ZM9.23077 25.227L13.8462 25.2271L13.8462 4.77273L9.23077 4.77271L9.23077 25.227ZM9.23077 4.77271L9.23077 25.227C9.23016 25.8296 8.98683 26.4073 8.55419 26.8334C8.12154 27.2595 7.53493 27.4991 6.92308 27.4997L2.30769 27.4997C1.69584 27.4991 1.10923 27.2595 0.676582 26.8334C0.243938 26.4073 0.000610862 25.8296 -9.93547e-08 25.227L-9.93442e-07 4.77271C0.000609915 4.17013 0.243937 3.59241 0.676581 3.16633C1.10922 2.74024 1.69584 2.50061 2.30769 2.5L6.92308 2.5C7.53493 2.50061 8.12154 2.74024 8.55419 3.16633C8.98683 3.59241 9.23016 4.17013 9.23077 4.77271ZM2.30769 25.227L6.92308 25.227L6.92308 4.77271L2.30769 4.77271L2.30769 25.227Z" fill="white"/>
<path d="M30 4.77298L30 25.2273C29.9994 25.8299 29.7561 26.4076 29.3234 26.8337C28.8908 27.2598 28.3042 27.4994 27.6923 27.5L23.0769 27.5C22.4651 27.4994 21.8785 27.2598 21.4458 26.8337C21.0132 26.4076 20.7698 25.8296 20.7692 25.2271L20.7692 4.77273C20.7698 4.17015 21.0132 3.59268 21.4458 3.1666C21.8785 2.74052 22.4651 2.50088 23.0769 2.50028L27.6923 2.50028C28.3042 2.50088 28.8908 2.74052 29.3234 3.1666C29.7561 3.59268 29.9994 4.17041 30 4.77298ZM23.0769 25.2271L27.6923 25.2273L27.6923 4.77298L23.0769 4.77273L23.0769 25.2271Z" fill="white"/>
</svg>
