<svg width="30" height="30" viewBox="0 0 30 30" fill="none" xmlns="http://www.w3.org/2000/svg">
<path d="M7.77778 26.6H22.2222V26.2375C21.2111 25.3917 20.0917 24.7575 18.8639 24.3351C17.6361 23.9117 16.3481 23.7 15 23.7C13.6519 23.7 12.3639 23.9117 11.1361 24.3351C9.90833 24.7575 8.78889 25.3917 7.77778 26.2375V26.6ZM4.88889 24.9325C6.18889 23.6517 7.69978 22.6425 9.42156 21.9049C11.1424 21.1683 13.0019 20.8 15 20.8C16.9981 20.8 18.8581 21.1683 20.5799 21.9049C22.3007 22.6425 23.8111 23.6517 25.1111 24.9325V6.3H4.88889V24.9325ZM15 17.9C13.6037 17.9 12.412 17.4046 11.425 16.4138C10.438 15.4229 9.94444 14.2267 9.94444 12.825C9.94444 11.4233 10.438 10.2271 11.425 9.23625C12.412 8.24542 13.6037 7.75 15 7.75C16.3963 7.75 17.588 8.24542 18.575 9.23625C19.562 10.2271 20.0556 11.4233 20.0556 12.825C20.0556 14.2267 19.562 15.4229 18.575 16.4138C17.588 17.4046 16.3963 17.9 15 17.9ZM15 15C15.6019 15 16.1132 14.7883 16.534 14.3649C16.9558 13.9425 17.1667 13.4292 17.1667 12.825C17.1667 12.2208 16.9558 11.7075 16.534 11.2851C16.1132 10.8617 15.6019 10.65 15 10.65C14.3981 10.65 13.8868 10.8617 13.466 11.2851C13.0442 11.7075 12.8333 12.2208 12.8333 12.825C12.8333 13.4292 13.0442 13.9425 13.466 14.3649C13.8868 14.7883 14.3981 15 15 15ZM3 29.5C2.44772 29.5 2 29.0523 2 28.5V4.4C2 3.84772 2.44772 3.4 3 3.4H6.33333V1.5C6.33333 0.947715 6.78105 0.5 7.33333 0.5H8.22222C8.77451 0.5 9.22222 0.947715 9.22222 1.5V3.4H20.7778V1.5C20.7778 0.947715 21.2255 0.5 21.7778 0.5H22.6667C23.219 0.5 23.6667 0.947715 23.6667 1.5V3.4H27C27.5523 3.4 28 3.84772 28 4.4V28.5C28 29.0523 27.5523 29.5 27 29.5H3Z" fill="white"/>
</svg>
