<svg width="30" height="30" viewBox="0 0 30 30" fill="none" xmlns="http://www.w3.org/2000/svg">
<path d="M16.7222 7.69994C16.7222 8.65109 15.9512 9.42216 15 9.42216C14.0488 9.42216 13.2778 8.65109 13.2778 7.69994C13.2778 6.74878 14.0488 5.97772 15 5.97772C15.9512 5.97772 16.7222 6.74878 16.7222 7.69994Z" fill="#CDCDCD"/>
<path d="M15 13V23.3333" stroke="#CDCDCD" stroke-width="3" stroke-linecap="round"/>
<path d="M15 30C12.95 30 11.0125 29.606 9.1875 28.818C7.3625 28.031 5.769 26.9625 4.407 25.6125C3.044 24.2625 1.969 22.675 1.182 20.85C0.394 19.025 0 17.075 0 15C0 12.925 0.394 10.975 1.182 9.15C1.969 7.325 3.044 5.7375 4.407 4.3875C5.769 3.0375 7.3625 1.9685 9.1875 1.1805C11.0125 0.3935 12.95 0 15 0C17.1 0 19.0625 0.3935 20.8875 1.1805C22.7125 1.9685 24.3 3.0375 25.65 4.3875C27 5.7375 28.0625 7.325 28.8375 9.15C29.6125 10.975 30 12.925 30 15C30 17.075 29.6125 19.025 28.8375 20.85C28.0625 22.675 27 24.2625 25.65 25.6125C24.3 26.9625 22.7125 28.031 20.8875 28.818C19.0625 29.606 17.1 30 15 30ZM15 27C18.35 27 21.1875 25.8315 23.5125 23.4945C25.8375 21.1565 27 18.325 27 15C27 11.675 25.8375 8.8435 23.5125 6.5055C21.1875 4.1685 18.35 3 15 3C11.725 3 8.906 4.1685 6.543 6.5055C4.181 8.8435 3 11.675 3 15C3 18.325 4.181 21.1565 6.543 23.4945C8.906 25.8315 11.725 27 15 27Z" fill="#CDCDCD"/>
</svg>
