<svg width="30" height="30" viewBox="0 0 30 30" fill="none" xmlns="http://www.w3.org/2000/svg">
<path d="M14.925 24C15.45 24 15.894 23.8185 16.257 23.4555C16.619 23.0935 16.8 22.65 16.8 22.125C16.8 21.6 16.619 21.1565 16.257 20.7945C15.894 20.4315 15.45 20.25 14.925 20.25C14.4 20.25 13.956 20.4315 13.593 20.7945C13.231 21.1565 13.05 21.6 13.05 22.125C13.05 22.65 13.231 23.0935 13.593 23.4555C13.956 23.8185 14.4 24 14.925 24ZM15.15 8.55C15.85 8.55 16.4125 8.7435 16.8375 9.1305C17.2625 9.5185 17.475 10.025 17.475 10.65C17.475 11.075 17.3315 11.506 17.0445 11.943C16.7565 12.381 16.35 12.8375 15.825 13.3125C15.075 13.9625 14.525 14.5875 14.175 15.1875C13.825 15.7875 13.65 16.3875 13.65 16.9875C13.65 17.3375 13.7815 17.631 14.0445 17.868C14.3065 18.106 14.6125 18.225 14.9625 18.225C15.3125 18.225 15.625 18.1 15.9 17.85C16.175 17.6 16.35 17.2875 16.425 16.9125C16.5 16.4875 16.669 16.094 16.932 15.732C17.194 15.369 17.625 14.9 18.225 14.325C19 13.6 19.544 12.9375 19.857 12.3375C20.169 11.7375 20.325 11.075 20.325 10.35C20.325 9.075 19.844 8.031 18.882 7.218C17.919 6.406 16.675 6 15.15 6C14.1 6 13.169 6.2 12.357 6.6C11.544 7 10.9125 7.6125 10.4625 8.4375C10.2875 8.7625 10.225 9.081 10.275 9.393C10.325 9.706 10.5 9.9625 10.8 10.1625C11.125 10.3625 11.4815 10.425 11.8695 10.35C12.2565 10.275 12.575 10.0625 12.825 9.7125C13.1 9.3375 13.4315 9.05 13.8195 8.85C14.2065 8.65 14.65 8.55 15.15 8.55ZM15 30C12.95 30 11.0125 29.606 9.1875 28.818C7.3625 28.031 5.769 26.9625 4.407 25.6125C3.044 24.2625 1.969 22.675 1.182 20.85C0.394 19.025 0 17.075 0 15C0 12.925 0.394 10.975 1.182 9.15C1.969 7.325 3.044 5.7375 4.407 4.3875C5.769 3.0375 7.3625 1.9685 9.1875 1.1805C11.0125 0.3935 12.95 0 15 0C17.1 0 19.0625 0.3935 20.8875 1.1805C22.7125 1.9685 24.3 3.0375 25.65 4.3875C27 5.7375 28.0625 7.325 28.8375 9.15C29.6125 10.975 30 12.925 30 15C30 17.075 29.6125 19.025 28.8375 20.85C28.0625 22.675 27 24.2625 25.65 25.6125C24.3 26.9625 22.7125 28.031 20.8875 28.818C19.0625 29.606 17.1 30 15 30ZM15 27C18.35 27 21.1875 25.8315 23.5125 23.4945C25.8375 21.1565 27 18.325 27 15C27 11.675 25.8375 8.8435 23.5125 6.5055C21.1875 4.1685 18.35 3 15 3C11.725 3 8.906 4.1685 6.543 6.5055C4.181 8.8435 3 11.675 3 15C3 18.325 4.181 21.1565 6.543 23.4945C8.906 25.8315 11.725 27 15 27Z" fill="#CDCDCD"/>
</svg>
