<svg width="28" height="28" viewBox="0 0 28 28" fill="none" xmlns="http://www.w3.org/2000/svg">
<path d="M25.2519 0.462402H2.75195H2.25195C1.14738 0.462402 0.251953 1.35796 0.251953 2.46253C0.251953 2.76309 0.251953 2.98947 0.251953 3.03637V25.5364V25.9624C0.251953 27.067 1.14808 27.9624 2.25265 27.9624C2.51454 27.9624 2.70833 27.9624 2.75195 27.9624H25.252C25.2956 27.9624 25.4894 27.9624 25.7513 27.9624C26.8558 27.9624 27.752 27.0664 27.752 25.9618C27.752 25.7387 27.752 25.5764 27.752 25.5364V3.03634C27.752 2.98944 27.752 2.76307 27.7519 2.46253C27.7519 1.35796 26.8558 0.462402 25.7513 0.462402C25.4894 0.462402 25.2956 0.462402 25.2519 0.462402ZM16.502 25.5364H2.75195V15.5363H16.502V25.5364ZM16.502 13.0363H2.75195V3.03637L16.502 3.03634V13.0363ZM25.252 25.5364H19.002V3.03637H25.252V25.5364Z" fill="white"/>
</svg>
