<svg width="21" height="15" viewBox="0 0 21 15" fill="none" xmlns="http://www.w3.org/2000/svg">
<path d="M19.4043 14.755C19.1696 14.7554 18.9411 14.6805 18.7522 14.5414L10.5001 8.45824L2.24809 14.5414C2.13224 14.627 2.00066 14.6889 1.86086 14.7237C1.72106 14.7584 1.57577 14.7653 1.43331 14.7439C1.29084 14.7226 1.15397 14.6734 1.03053 14.5992C0.907083 14.525 0.799474 14.4272 0.713845 14.3114C0.628216 14.1957 0.566244 14.0642 0.531467 13.9245C0.49669 13.7848 0.48979 13.6396 0.51116 13.4973C0.554319 13.2097 0.71001 12.9511 0.943982 12.7783L9.84809 6.20786C10.0368 6.06826 10.2654 5.99292 10.5001 5.99292C10.7349 5.99292 10.9635 6.06826 11.1522 6.20786L20.0563 12.7783C20.2422 12.9153 20.3801 13.1074 20.4503 13.3272C20.5204 13.5471 20.5193 13.7835 20.4469 14.0027C20.3746 14.2219 20.2349 14.4126 20.0476 14.5477C19.8604 14.6828 19.6352 14.7554 19.4043 14.755Z" fill="#FF3D00"/>
<path d="M19.4043 9.00581C19.1696 9.00621 18.9411 8.93136 18.7522 8.79226L10.5002 2.7091L2.2481 8.79226C2.01412 8.96507 1.72104 9.03793 1.43331 8.9948C1.14558 8.95167 0.886785 8.7961 0.713849 8.5623C0.540914 8.3285 0.468006 8.03563 0.511165 7.74811C0.554324 7.4606 0.710015 7.20199 0.943986 7.02919L9.8481 0.45871C10.0368 0.319119 10.2654 0.243774 10.5002 0.243774C10.7349 0.243774 10.9635 0.319119 11.1522 0.45871L20.0563 7.02919C20.2422 7.1661 20.3801 7.35822 20.4503 7.5781C20.5204 7.79797 20.5193 8.03438 20.447 8.25356C20.3746 8.47274 20.2349 8.6635 20.0476 8.79859C19.8604 8.93368 19.6352 9.0062 19.4043 9.00581Z" fill="#FF3D00"/>
</svg>
